<?xml version="1.0" standalone="no"?>
<!DOCTYPE svg PUBLIC "-//W3C//DTD SVG 20010904//EN"
 "http://www.w3.org/TR/2001/REC-SVG-20010904/DTD/svg10.dtd">
<svg version="1.0" xmlns="http://www.w3.org/2000/svg"
 width="1714.000000pt" height="582.000000pt" viewBox="0 0 1714.000000 582.000000"
 preserveAspectRatio="xMidYMid meet">
<metadata>
Created by potrace 1.15, written by Peter Selinger 2001-2017
</metadata>
<g transform="translate(0.000000,582.000000) scale(0.100000,-0.100000)"
fill="#000000" stroke="none">
<path d="M1795 5370 c-291 -41 -545 -159 -805 -375 -239 -199 -410 -464 -500
-775 -34 -118 -39 -139 -55 -239 -31 -196 -29 -457 6 -610 58 -249 170 -474
347 -696 72 -89 247 -260 337 -329 69 -53 150 -134 233 -235 l44 -52 46 7 c26
3 51 10 55 14 10 9 -48 129 -94 196 -50 73 -207 226 -284 277 -83 55 -219 185
-281 270 -105 143 -204 364 -259 579 -35 137 -37 150 -37 309 0 165 12 250 57
424 36 140 140 362 236 502 73 106 254 284 370 362 123 83 306 171 449 216 63
20 131 41 150 47 46 15 379 15 445 0 252 -57 325 -81 468 -154 177 -91 353
-233 494 -401 85 -102 92 -130 33 -135 -43 -4 -60 -24 -60 -72 0 -72 7 -75
204 -78 165 -3 176 -2 195 17 23 23 28 79 11 112 -9 16 -22 19 -85 19 l-74 0
-78 118 c-166 250 -403 441 -699 566 -65 27 -266 84 -369 105 -74 15 -418 22
-500 11z"/>
<path d="M1970 4275 c-154 -19 -268 -76 -383 -192 -75 -74 -103 -122 -122
-211 -19 -93 -19 -155 1 -242 12 -56 24 -79 57 -115 110 -120 315 -110 408 19
27 36 29 45 29 136 0 118 -16 150 -100 192 -90 45 -155 32 -254 -51 -55 -46
-58 -47 -81 -24 -32 31 -2 178 47 238 68 84 171 151 253 166 137 25 193 23
313 -13 47 -14 129 -82 163 -136 87 -138 102 -399 34 -597 -28 -79 -124 -260
-191 -360 -88 -129 -164 -282 -193 -386 -39 -141 -21 -344 42 -463 14 -27 24
-69 28 -126 9 -107 27 -241 33 -247 7 -7 19 299 13 352 -3 28 -11 69 -18 92
-10 33 -10 52 0 96 24 111 105 211 341 426 175 159 299 280 349 341 60 73 136
236 155 332 47 229 -16 481 -152 610 -153 146 -438 207 -772 163z"/>
<path d="M9315 3631 c-93 -40 -66 -181 35 -181 79 0 120 95 68 154 -25 28 -72
40 -103 27z"/>
<path d="M8651 3299 c-40 -44 -98 -98 -127 -120 -34 -25 -54 -47 -54 -59 0
-17 7 -20 49 -20 41 0 51 -4 56 -20 3 -11 5 -133 3 -272 l-3 -253 28 -51 c64
-115 209 -148 344 -78 61 31 80 52 70 77 -6 15 -10 15 -43 1 -54 -23 -149 -22
-175 2 -51 46 -53 62 -54 334 l0 255 145 0 145 0 0 45 0 45 -143 3 -143 3 1
82 c1 45 1 88 1 95 -2 27 -29 8 -100 -69z"/>
<path d="M5019 3222 c-37 -29 -68 -44 -154 -73 -61 -20 -80 -31 -80 -45 0 -13
12 -22 37 -29 71 -20 73 -23 77 -236 6 -315 -6 -358 -97 -374 -34 -5 -42 -11
-42 -29 0 -22 1 -22 203 -22 115 0 205 4 209 10 12 17 -3 34 -36 40 -69 13
-71 19 -74 306 l-3 257 41 36 c103 88 254 66 292 -41 18 -51 19 -487 1 -519
-7 -12 -32 -28 -55 -35 -29 -10 -44 -21 -46 -34 -3 -19 4 -20 205 -19 189 0
208 2 211 18 2 9 -2 19 -10 21 -81 24 -107 39 -117 68 -7 19 -11 121 -11 258
0 259 -9 306 -66 370 -46 50 -111 75 -194 74 -72 0 -139 -28 -213 -86 l-40
-32 5 57 c6 69 -7 86 -43 59z"/>
<path d="M7685 3229 c-9 -14 -112 -64 -175 -84 -92 -30 -101 -53 -27 -72 31
-9 47 -20 55 -38 9 -19 12 -154 12 -491 0 -543 3 -524 -84 -549 -42 -12 -56
-21 -56 -35 0 -18 25 -34 40 -25 8 5 312 6 370 2 20 -2 25 3 25 22 0 20 -7 26
-44 35 -78 19 -84 37 -89 248 -4 174 -4 181 14 174 77 -31 148 -39 231 -28
160 21 275 101 337 232 29 61 31 72 31 185 0 150 -22 218 -98 302 -61 66 -123
99 -217 114 -91 15 -149 -1 -235 -66 -33 -25 -60 -45 -60 -45 0 0 1 26 3 59 3
45 0 60 -12 64 -8 3 -18 2 -21 -4z m312 -126 c53 -18 106 -79 130 -147 28 -79
24 -271 -7 -350 -32 -84 -91 -140 -163 -156 -95 -22 -183 5 -224 67 -16 24
-18 56 -21 266 -3 238 -3 239 20 264 72 76 158 95 265 56z"/>
<path d="M9396 3219 c-31 -24 -118 -64 -177 -79 -24 -7 -49 -16 -56 -22 -19
-15 -4 -36 31 -42 18 -4 42 -16 52 -27 18 -20 19 -40 19 -274 0 -288 1 -284
-84 -309 -34 -10 -46 -18 -46 -32 0 -18 11 -19 218 -19 217 0 217 0 217 21 0
18 -8 24 -42 29 -65 11 -85 38 -93 131 -8 80 0 485 11 580 7 60 -9 75 -50 43z"/>
<path d="M12708 3221 c-37 -29 -88 -53 -163 -77 -53 -17 -70 -27 -70 -40 0
-13 11 -21 37 -27 73 -17 73 -19 73 -296 0 -286 -1 -291 -83 -314 -32 -10 -48
-20 -50 -33 -3 -18 7 -19 228 -20 223 0 231 1 228 20 -2 13 -19 24 -55 36 -29
9 -59 23 -67 30 -29 23 -36 85 -36 307 l0 222 33 25 c60 46 83 49 144 21 70
-32 103 -32 132 -1 28 30 31 89 6 116 -56 62 -163 41 -282 -56 l-31 -25 5 59
c6 68 -9 84 -49 53z"/>
<path d="M4137 3220 c-153 -26 -286 -148 -327 -299 -17 -62 -14 -188 5 -253
56 -195 257 -312 478 -279 285 44 435 337 308 607 -57 121 -165 202 -301 223
-73 12 -94 12 -163 1z m148 -61 c54 -15 117 -82 146 -156 21 -51 24 -75 24
-203 0 -139 -1 -148 -29 -208 -50 -108 -135 -162 -236 -148 -127 18 -210 157
-210 354 0 258 128 409 305 361z"/>
<path d="M6117 3220 c-115 -21 -239 -115 -290 -221 -15 -30 -31 -86 -37 -125
-44 -290 184 -531 459 -484 104 17 231 98 231 146 0 37 -16 37 -64 0 -44 -34
-115 -56 -177 -56 -99 0 -197 66 -240 162 -22 48 -24 66 -23 188 0 114 4 144
22 190 36 92 113 150 199 150 53 0 90 -25 118 -80 29 -58 58 -80 102 -80 42 0
73 30 73 72 0 43 -59 98 -130 121 -66 21 -177 29 -243 17z"/>
<path d="M6922 3220 c-204 -43 -342 -267 -304 -493 16 -95 53 -168 116 -231
64 -63 127 -95 216 -109 58 -9 79 -8 131 7 75 20 155 72 209 133 68 77 48 119
-25 55 -63 -55 -109 -75 -185 -80 -95 -6 -146 11 -201 67 -59 58 -79 120 -79
243 l0 88 253 0 c187 0 257 3 270 13 37 28 -16 163 -90 227 -78 69 -207 102
-311 80z m177 -78 c39 -29 62 -65 68 -108 8 -64 -4 -68 -194 -73 l-164 -3 7
28 c17 70 63 137 112 164 46 25 133 21 171 -8z"/>
<path d="M10001 3219 c-121 -21 -240 -113 -292 -223 -54 -117 -56 -270 -4
-383 31 -68 120 -157 187 -188 171 -78 394 -41 512 85 136 145 147 381 28 554
-36 52 -132 122 -193 140 -66 20 -173 27 -238 15z m153 -60 c54 -15 118 -83
147 -155 20 -52 23 -76 23 -199 1 -124 -2 -147 -23 -200 -67 -169 -239 -218
-356 -101 -58 58 -85 135 -92 256 -15 279 114 451 301 399z"/>
<path d="M10858 3203 c-21 -14 -75 -38 -120 -53 -61 -21 -84 -33 -86 -47 -2
-15 7 -21 42 -31 29 -7 50 -20 57 -34 16 -29 24 -290 14 -423 -8 -113 -24
-138 -93 -150 -34 -5 -42 -11 -42 -29 0 -22 1 -22 203 -22 115 0 205 4 209 10
12 17 -3 34 -36 40 -69 13 -71 19 -74 306 l-3 258 41 35 c71 61 184 73 243 27
52 -41 57 -68 57 -324 0 -155 -4 -244 -11 -260 -8 -16 -27 -30 -53 -39 -27 -9
-42 -20 -44 -33 -3 -19 4 -20 200 -20 112 1 206 5 210 10 9 13 -2 36 -18 36
-7 0 -31 7 -53 16 -28 11 -43 24 -50 46 -7 19 -11 122 -11 258 0 252 -8 299
-60 362 -44 53 -110 82 -190 82 -82 0 -125 -14 -201 -70 l-60 -45 2 58 c3 51
1 58 -17 60 -10 1 -36 -9 -56 -24z"/>
<path d="M11963 3216 c-104 -25 -239 -112 -267 -171 -30 -62 -3 -105 64 -105
43 0 86 46 95 103 4 23 11 50 16 59 15 28 64 48 117 48 92 0 129 -67 116 -209
l-6 -78 -89 -27 c-232 -72 -349 -166 -349 -278 0 -82 49 -145 131 -170 73 -21
223 17 285 73 20 19 21 19 43 -12 43 -58 131 -75 206 -39 65 31 99 67 89 94
-8 20 -23 20 -45 0 -27 -24 -69 -21 -92 7 -19 23 -19 36 -12 285 6 229 5 265
-10 300 -24 58 -72 102 -129 119 -59 18 -93 18 -163 1z m136 -493 c0 -43 -4
-102 -8 -132 -10 -66 -40 -95 -120 -113 -44 -10 -58 -9 -80 3 -39 22 -63 75
-57 127 7 56 36 95 92 128 38 22 141 62 167 63 4 1 7 -34 6 -76z"/>
<path d="M14468 3203 c-21 -14 -75 -38 -120 -53 -61 -21 -84 -33 -86 -47 -2
-15 7 -21 43 -31 34 -9 48 -19 55 -38 13 -34 13 -475 0 -510 -14 -35 -36 -51
-82 -59 -36 -6 -52 -23 -40 -41 4 -6 94 -10 210 -10 201 0 202 0 202 22 0 17
-8 23 -34 28 -69 13 -71 18 -74 305 l-3 258 40 36 c64 58 143 71 219 37 33
-15 47 -29 62 -62 18 -39 20 -67 20 -279 0 -223 -1 -238 -20 -262 -12 -15 -36
-29 -55 -33 -27 -5 -35 -11 -35 -28 0 -21 2 -21 195 -21 188 0 196 1 193 19
-2 12 -16 24 -37 31 -70 23 -71 27 -71 320 l0 264 27 20 c66 52 194 63 253 21
51 -36 55 -63 55 -331 0 -228 -1 -249 -19 -268 -10 -11 -34 -23 -52 -27 -26
-5 -34 -11 -34 -28 0 -21 2 -21 205 -21 l205 0 0 22 c0 13 -6 23 -12 23 -7 0
-30 5 -50 11 -62 17 -66 32 -70 314 -3 250 -3 250 -31 307 -45 92 -117 133
-232 133 -81 -1 -139 -23 -223 -86 -29 -23 -54 -39 -56 -37 -55 87 -119 122
-221 122 -80 0 -132 -20 -207 -77 l-48 -37 0 60 c0 70 -11 75 -72 33z"/>
<path d="M16080 3220 c-218 -46 -357 -296 -295 -533 22 -83 50 -134 109 -192
63 -63 125 -94 216 -108 119 -18 220 21 327 129 54 53 60 67 44 93 -8 12 -18
7 -51 -23 -110 -99 -262 -116 -370 -41 -72 50 -114 176 -102 308 l4 47 248 0
c137 0 255 3 264 6 24 9 20 79 -6 133 -30 61 -98 127 -161 156 -60 28 -161 38
-227 25z m156 -69 c70 -32 113 -121 80 -166 -13 -18 -28 -20 -180 -24 -140 -2
-166 -1 -166 11 0 22 57 132 78 151 54 49 120 59 188 28z"/>
<path d="M13126 3183 c-6 -15 20 -43 41 -43 25 0 68 -30 90 -63 26 -39 273
-633 273 -657 0 -28 -129 -303 -154 -328 -21 -21 -25 -22 -67 -11 -81 22 -139
-13 -139 -80 1 -40 14 -62 47 -79 57 -31 132 -1 182 71 15 23 122 245 236 492
114 248 225 485 246 527 38 75 88 128 122 128 30 0 47 12 47 34 0 21 -3 21
-170 21 -166 0 -170 -1 -170 -21 0 -16 10 -24 40 -33 47 -14 64 -41 56 -87 -6
-31 -167 -418 -179 -430 -7 -7 -167 402 -174 443 -7 42 9 61 64 75 36 9 43 14
41 31 -3 20 -9 21 -215 21 -159 1 -214 -2 -217 -11z"/>
<path d="M3187 3103 c-4 -3 -7 -41 -7 -84 0 -90 8 -99 83 -99 30 0 47 -5 50
-14 4 -9 -21 -52 -56 -102 -128 -180 -277 -330 -430 -434 -84 -57 -131 -111
-192 -223 -41 -75 -40 -97 4 -97 25 0 36 9 62 48 37 54 122 156 159 190 14 13
68 58 120 99 187 149 314 289 395 436 20 36 42 70 49 76 7 6 41 16 77 23 l64
13 3 88 3 87 -189 0 c-104 0 -192 -3 -195 -7z"/>
<path d="M13891 2571 c-26 -24 -31 -37 -31 -73 1 -116 142 -150 196 -46 52
101 -81 197 -165 119z"/>
<path d="M1635 1973 c-82 -8 -154 -18 -159 -23 -12 -12 35 -139 54 -145 8 -3
51 0 95 6 44 6 124 13 178 16 70 4 100 9 104 19 6 17 -16 114 -30 132 -12 15
-47 14 -242 -5z"/>
<path d="M2215 1968 c-8 -25 -23 -123 -19 -129 8 -13 347 -55 363 -45 12 8 53
125 47 135 -7 11 -101 28 -228 41 -127 13 -158 13 -163 -2z"/>
<path d="M1590 1741 l-35 -6 3 -63 c2 -35 7 -75 13 -89 l9 -26 93 8 c50 4 135
11 187 14 l95 6 3 30 c1 17 -4 53 -11 80 l-13 50 -155 1 c-85 1 -170 -1 -189
-5z"/>
<path d="M2171 1732 c-15 -28 -32 -135 -23 -144 5 -5 78 -15 163 -23 85 -8
168 -17 185 -21 36 -7 37 -5 49 108 8 70 5 72 -127 87 -151 17 -235 15 -247
-7z"/>
<path d="M1845 1488 c-55 -5 -136 -12 -180 -16 l-80 -7 -7 -94 c-4 -52 -6 -96
-5 -98 2 -1 41 2 88 7 46 5 144 10 217 10 113 0 134 2 139 16 3 9 -2 53 -13
97 -15 61 -24 81 -39 86 -11 4 -65 3 -120 -1z"/>
<path d="M2111 1459 c-16 -40 -34 -146 -27 -158 4 -6 36 -11 74 -11 37 0 138
-7 224 -17 87 -9 161 -14 164 -10 10 9 -11 166 -23 178 -16 16 -115 29 -260
36 l-142 6 -10 -24z"/>
<path d="M1620 1142 c-64 -35 -73 -70 -72 -274 1 -170 2 -182 24 -213 48 -71
41 -70 463 -73 l380 -3 45 24 c28 15 54 39 67 63 21 36 23 52 23 205 0 153 -2
169 -23 209 -43 81 -38 80 -482 80 -360 0 -393 -1 -425 -18z"/>
</g>
</svg>
